<?xml version="1.0" encoding="utf-8"?>
<!-- Generator: Adobe Illustrator 22.1.0, SVG Export Plug-In . SVG Version: 6.00 Build 0)  -->
<svg version="1.1" id="Layer_1" xmlns="http://www.w3.org/2000/svg" xmlns:xlink="http://www.w3.org/1999/xlink" x="0px" y="0px"
	 viewBox="0 0 170 170" style="enable-background:new 0 0 170 170;" xml:space="preserve">
<style type="text/css">
	.st0{fill:#E7C740;stroke:#E7C740;stroke-miterlimit:10;}
	.st1{fill:none;stroke:#000000;stroke-width:1.5;stroke-miterlimit:10;}
	.st2{fill:#FFFFFF;}
</style>
<path class="st0" d="M89.3,52.7c0,0,0,3.8,0,3.8c5.3,0.1,10.6,0.1,15.9,0.2c3.3,0,6.6,0.1,9.8,0.1c3.8,0,8,0.4,10.9,3.3
	c1,1,1.8,2.3,2.4,3.6c1.1,2.3,1.8,4.7,1.9,7.2c0.1,3.4-1.1,6.9-3.3,9.5c-4.8,5.7-12.9,6-19.7,4.9c-0.1,0-0.1,0-0.2,0
	c0,0,0-24.7,0-24.7h-3.9c0,0-0.2,28.2-0.2,28.2c5.2-0.1,10.7,0.2,15.8-0.4c3.7-0.5,7.4-1.9,10.2-4.4c6.7-5.9,7-18.3,1.4-25.1
	c-5.2-6.2-13.4-5.4-20.7-5.6c-6.4-0.1-12.9-0.3-19.3-0.4C90.4,52.7,89.3,52.7,89.3,52.7z"/>
<g>
	<defs>
		<rect id="SVGID_1_" x="30.6" y="32.9" width="47.5" height="40.3"/>
	</defs>
	<clipPath id="SVGID_2_">
		<use xlink:href="#SVGID_1_"  style="overflow:visible;"/>
	</clipPath>
</g>
<path d="M15,35.4c0,0,0-23.1,0-23.1h137.6v92.3H82.3L53,129h-4.2l0.2-23.4L15,105V42.2h5.9v56.4l33.5,0.7l-0.2,20.8l25.5-21.2
	l66.8,0.2V17.9L20.9,17.4c0,0,0.2,11.8,0.2,11.8c6.5,0.1,13,0.1,19.5,0.2c5.9,0,11.8,0.1,17.7,0.2c6.4,0.1,12.3-0.1,18.3,2.3
	c4.4,1.8,8.5,4.4,11.6,7.9c8.5,9.4,8.3,23.7,3,34.7c-2.2,4.5-7.3,8.1-11.6,10.3c-5,2.5-10.6,3-16.1,3.1c-6.7,0.2-13.4,0.2-20,0.4
	c0-6.1-0.1-12.3-0.1-18.4c0-8.6-0.1-17.2-0.1-25.7c0-1.1-0.4-2.3,0.6-2.6c0.4-0.1,5.5,0.3,5.5,0.5c0,0,0.9,40.6,0.9,40.6
	c5.9,0,12.2,0.4,18-0.3c6.6-0.8,13.5-5,17-10.7c2.7-4.4,3.4-9.7,2.7-14.8c-0.2-1.7-0.6-3.3-1-4.9c-0.8-2.9-2-5.8-3.9-8.2
	c-2.6-3.2-6.2-5.4-10.1-6.7c-3.9-1.3-7.7-1.2-11.7-1.2c-9.1-0.1-18.2-0.2-27.3-0.2c-6.3-0.1-12.6-0.1-18.9-0.2
	C15.2,35.4,15,35.4,15,35.4z"/>
<g>
	<path d="M23.5,143.9c0,1.3-0.4,2.3-1.1,3c-0.8,0.7-1.8,1-3.2,1H17v-7.9h2.5c0.8,0,1.5,0.1,2.1,0.4c0.6,0.3,1.1,0.7,1.4,1.3
		C23.3,142.4,23.5,143.1,23.5,143.9z M21.8,144c0-0.9-0.2-1.5-0.6-1.9c-0.4-0.4-0.9-0.6-1.7-0.6h-0.9v5.1h0.7
		C21,146.5,21.8,145.7,21.8,144z"/>
	<path d="M29.1,139.9c0.6,0,1.1,0.1,1.4,0.4c0.3,0.3,0.5,0.7,0.5,1.2c0,0.5-0.1,0.9-0.4,1.2c-0.3,0.3-0.7,0.6-1.1,0.9l2.1,2
		c0.2-0.2,0.3-0.5,0.5-0.8s0.2-0.6,0.3-1h1c-0.1,0.5-0.3,0.9-0.4,1.3c-0.2,0.4-0.4,0.8-0.7,1.1l1.6,1.6h-1.3l-1-0.9
		c-0.3,0.3-0.7,0.6-1.2,0.7s-0.9,0.3-1.6,0.3c-0.8,0-1.4-0.2-1.8-0.6s-0.7-0.9-0.7-1.6c0-0.6,0.2-1,0.5-1.4s0.7-0.7,1.2-1
		c-0.2-0.3-0.5-0.5-0.7-0.8s-0.3-0.7-0.3-1.1c0-0.5,0.2-1,0.5-1.3C28,140.1,28.5,139.9,29.1,139.9z M28.6,144.2
		c-0.4,0.2-0.7,0.5-0.9,0.7c-0.2,0.2-0.3,0.6-0.3,1c0,0.4,0.1,0.7,0.4,1c0.3,0.2,0.6,0.4,1.1,0.4c0.5,0,0.9-0.1,1.2-0.2
		c0.3-0.2,0.6-0.3,0.8-0.6L28.6,144.2z M29.1,140.7c-0.3,0-0.6,0.1-0.8,0.2c-0.2,0.2-0.3,0.4-0.3,0.7c0,0.3,0.1,0.5,0.2,0.7
		c0.1,0.2,0.3,0.5,0.6,0.7c0.4-0.2,0.7-0.5,0.9-0.7c0.2-0.2,0.3-0.5,0.3-0.8c0-0.3-0.1-0.5-0.3-0.6
		C29.6,140.8,29.4,140.7,29.1,140.7z"/>
	<path d="M43,143.9c0,1.3-0.4,2.3-1.1,3c-0.8,0.7-1.8,1-3.2,1h-2.2v-7.9h2.5c0.8,0,1.5,0.1,2.1,0.4c0.6,0.3,1.1,0.7,1.4,1.3
		C42.8,142.4,43,143.1,43,143.9z M41.2,144c0-0.9-0.2-1.5-0.6-1.9c-0.4-0.4-0.9-0.6-1.7-0.6h-0.9v5.1h0.7
		C40.4,146.5,41.2,145.7,41.2,144z"/>
	<path d="M61.7,144.3c0,1.2-0.3,2.1-1,2.7c-0.7,0.6-1.6,0.9-2.7,0.9h-2v-7.1h2.2c0.7,0,1.3,0.1,1.9,0.4c0.5,0.3,0.9,0.7,1.2,1.2
		C61.5,142.9,61.7,143.5,61.7,144.3z M60.7,144.3c0-1-0.2-1.7-0.7-2.1c-0.5-0.4-1.1-0.7-2-0.7h-1.2v5.6h1
		C59.8,147.1,60.7,146.2,60.7,144.3z"/>
	<path d="M66.7,142.5c0.7,0,1.1,0.1,1.5,0.4c0.3,0.3,0.5,0.7,0.5,1.4v3.7h-0.6l-0.2-0.8h0c-0.2,0.3-0.5,0.5-0.7,0.6
		c-0.3,0.1-0.6,0.2-1.1,0.2c-0.5,0-0.9-0.1-1.2-0.4s-0.5-0.7-0.5-1.2c0-0.5,0.2-0.9,0.6-1.2s1.1-0.4,1.9-0.5l0.9,0v-0.3
		c0-0.4-0.1-0.8-0.3-0.9c-0.2-0.2-0.5-0.3-0.8-0.3c-0.3,0-0.5,0-0.8,0.1c-0.3,0.1-0.5,0.2-0.7,0.3l-0.3-0.7c0.2-0.1,0.5-0.2,0.8-0.3
		C66,142.5,66.3,142.5,66.7,142.5z M67.7,145.3l-0.8,0c-0.7,0-1.1,0.1-1.4,0.3c-0.3,0.2-0.4,0.4-0.4,0.8c0,0.3,0.1,0.5,0.3,0.7
		c0.2,0.1,0.4,0.2,0.7,0.2c0.5,0,0.8-0.1,1.1-0.4s0.5-0.6,0.5-1.2V145.3z"/>
	<path d="M74.2,142.5c0.1,0,0.2,0,0.3,0c0.1,0,0.2,0,0.3,0l-0.1,0.8c-0.1,0-0.2,0-0.3,0c-0.1,0-0.2,0-0.3,0c-0.3,0-0.5,0.1-0.8,0.2
		c-0.2,0.1-0.4,0.4-0.6,0.6c-0.1,0.3-0.2,0.6-0.2,0.9v2.9h-0.9v-5.4h0.7l0.1,1h0c0.2-0.3,0.4-0.5,0.7-0.8
		C73.5,142.6,73.9,142.5,74.2,142.5z"/>
	<path d="M79.2,142.5c0.5,0,0.9,0.1,1.2,0.3s0.6,0.5,0.8,0.8c0.2,0.4,0.3,0.8,0.3,1.3v0.5h-3.7c0,0.6,0.2,1.1,0.5,1.4
		c0.3,0.3,0.7,0.5,1.2,0.5c0.3,0,0.6,0,0.9-0.1c0.3-0.1,0.5-0.2,0.8-0.3v0.8c-0.3,0.1-0.5,0.2-0.8,0.3s-0.6,0.1-1,0.1
		c-0.5,0-1-0.1-1.3-0.3c-0.4-0.2-0.7-0.5-0.9-0.9s-0.3-0.9-0.3-1.5c0-0.6,0.1-1.1,0.3-1.5c0.2-0.4,0.5-0.7,0.8-1
		C78.3,142.6,78.8,142.5,79.2,142.5z M79.2,143.2c-0.4,0-0.8,0.1-1,0.4c-0.2,0.3-0.4,0.6-0.4,1.1h2.7c0-0.5-0.1-0.8-0.3-1.1
		C80,143.3,79.7,143.2,79.2,143.2z"/>
	<path d="M90.2,147.3c0.1,0,0.3,0,0.4,0c0.1,0,0.3,0,0.3-0.1v0.7c-0.1,0-0.2,0.1-0.4,0.1c-0.2,0-0.3,0-0.5,0c-0.3,0-0.5,0-0.8-0.1
		s-0.4-0.3-0.6-0.5s-0.2-0.6-0.2-1v-3.1h-0.8v-0.4l0.8-0.4l0.4-1.1h0.5v1.2h1.5v0.7h-1.5v3.1c0,0.3,0.1,0.6,0.2,0.7
		C89.8,147.2,90,147.3,90.2,147.3z"/>
	<path d="M98.2,145.2c0,0.9-0.2,1.6-0.7,2.1s-1.1,0.7-1.8,0.7c-0.5,0-0.9-0.1-1.3-0.3s-0.7-0.5-0.9-1c-0.2-0.4-0.3-0.9-0.3-1.5
		c0-0.9,0.2-1.6,0.7-2c0.4-0.5,1.1-0.7,1.8-0.7c0.5,0,0.9,0.1,1.3,0.3s0.7,0.5,0.9,0.9S98.2,144.6,98.2,145.2z M94.1,145.2
		c0,0.6,0.1,1.1,0.4,1.5c0.3,0.4,0.6,0.6,1.2,0.6c0.5,0,0.9-0.2,1.2-0.6c0.3-0.4,0.4-0.9,0.4-1.5c0-0.6-0.1-1.1-0.4-1.5
		c-0.3-0.4-0.7-0.5-1.2-0.5c-0.5,0-0.9,0.2-1.2,0.5C94.3,144.1,94.1,144.6,94.1,145.2z"/>
	<path d="M107.1,148c-0.7,0-1.2-0.2-1.6-0.7c-0.4-0.5-0.6-1.2-0.6-2.1s0.2-1.6,0.6-2.1s0.9-0.7,1.6-0.7c0.4,0,0.8,0.1,1,0.2
		c0.3,0.2,0.5,0.3,0.6,0.6h0.1c0-0.1,0-0.2,0-0.4s0-0.3,0-0.4v-2.1h0.9v7.6h-0.7l-0.1-0.7h0c-0.2,0.2-0.4,0.4-0.6,0.6
		C107.8,147.9,107.5,148,107.1,148z M107.2,147.3c0.6,0,1-0.2,1.2-0.5c0.2-0.3,0.3-0.8,0.3-1.4v-0.2c0-0.7-0.1-1.2-0.3-1.5
		c-0.2-0.4-0.6-0.5-1.2-0.5c-0.5,0-0.8,0.2-1.1,0.6c-0.2,0.4-0.4,0.9-0.4,1.5c0,0.6,0.1,1.1,0.4,1.5
		C106.4,147.1,106.7,147.3,107.2,147.3z"/>
	<path d="M113.3,140.5c0.1,0,0.3,0,0.4,0.1c0.1,0.1,0.2,0.2,0.2,0.4c0,0.2-0.1,0.3-0.2,0.4c-0.1,0.1-0.2,0.1-0.4,0.1
		c-0.1,0-0.3,0-0.4-0.1c-0.1-0.1-0.1-0.2-0.1-0.4c0-0.2,0-0.3,0.1-0.4C113,140.6,113.1,140.5,113.3,140.5z M113.7,142.6v5.4h-0.9
		v-5.4H113.7z"/>
	<path d="M120.4,146.4c0,0.5-0.2,0.9-0.6,1.2s-0.9,0.4-1.6,0.4c-0.4,0-0.7,0-1-0.1c-0.3-0.1-0.5-0.1-0.7-0.3v-0.8
		c0.2,0.1,0.5,0.2,0.8,0.3s0.6,0.1,0.9,0.1c0.4,0,0.8-0.1,1-0.2c0.2-0.1,0.3-0.3,0.3-0.6c0-0.1,0-0.3-0.1-0.4s-0.2-0.2-0.4-0.3
		c-0.2-0.1-0.5-0.2-0.8-0.4c-0.3-0.1-0.6-0.3-0.9-0.4c-0.2-0.1-0.4-0.3-0.6-0.5c-0.1-0.2-0.2-0.4-0.2-0.7c0-0.5,0.2-0.8,0.6-1
		c0.4-0.2,0.9-0.4,1.5-0.4c0.3,0,0.6,0,0.9,0.1c0.3,0.1,0.5,0.2,0.8,0.3l-0.3,0.7c-0.2-0.1-0.5-0.2-0.7-0.2
		c-0.2-0.1-0.5-0.1-0.8-0.1c-0.4,0-0.6,0.1-0.8,0.2c-0.2,0.1-0.3,0.3-0.3,0.5c0,0.1,0,0.3,0.1,0.4c0.1,0.1,0.2,0.2,0.4,0.3
		s0.5,0.2,0.8,0.3c0.3,0.1,0.6,0.3,0.9,0.4c0.2,0.1,0.4,0.3,0.6,0.5C120.3,145.9,120.4,146.2,120.4,146.4z"/>
	<path d="M125.3,148c-0.5,0-0.9-0.1-1.3-0.3c-0.4-0.2-0.7-0.5-0.9-0.9s-0.3-0.9-0.3-1.6c0-0.7,0.1-1.2,0.3-1.6s0.5-0.7,0.9-0.9
		c0.4-0.2,0.8-0.3,1.3-0.3c0.3,0,0.5,0,0.8,0.1c0.3,0.1,0.5,0.1,0.6,0.2l-0.3,0.7c-0.2-0.1-0.3-0.1-0.6-0.2
		c-0.2-0.1-0.4-0.1-0.6-0.1c-1.1,0-1.6,0.7-1.6,2c0,0.6,0.1,1.1,0.4,1.5c0.3,0.3,0.6,0.5,1.1,0.5c0.3,0,0.6,0,0.8-0.1
		c0.2-0.1,0.4-0.1,0.6-0.2v0.8c-0.2,0.1-0.4,0.2-0.6,0.2C125.9,148,125.6,148,125.3,148z"/>
	<path d="M134,142.6v5.4h-0.7l-0.1-0.7h0c-0.2,0.3-0.4,0.5-0.7,0.6s-0.6,0.2-1,0.2c-0.6,0-1.1-0.2-1.5-0.5c-0.3-0.3-0.5-0.8-0.5-1.5
		v-3.5h0.9v3.5c0,0.9,0.4,1.3,1.2,1.3c0.6,0,1-0.2,1.2-0.5c0.2-0.3,0.3-0.8,0.3-1.4v-2.8H134z"/>
	<path d="M140.7,146.4c0,0.5-0.2,0.9-0.6,1.2s-0.9,0.4-1.6,0.4c-0.4,0-0.7,0-1-0.1c-0.3-0.1-0.5-0.1-0.7-0.3v-0.8
		c0.2,0.1,0.5,0.2,0.8,0.3s0.6,0.1,0.9,0.1c0.4,0,0.8-0.1,1-0.2c0.2-0.1,0.3-0.3,0.3-0.6c0-0.1,0-0.3-0.1-0.4s-0.2-0.2-0.4-0.3
		c-0.2-0.1-0.5-0.2-0.8-0.4c-0.3-0.1-0.6-0.3-0.9-0.4c-0.2-0.1-0.4-0.3-0.6-0.5c-0.1-0.2-0.2-0.4-0.2-0.7c0-0.5,0.2-0.8,0.6-1
		c0.4-0.2,0.9-0.4,1.5-0.4c0.3,0,0.6,0,0.9,0.1c0.3,0.1,0.5,0.2,0.8,0.3l-0.3,0.7c-0.2-0.1-0.5-0.2-0.7-0.2
		c-0.2-0.1-0.5-0.1-0.8-0.1c-0.4,0-0.6,0.1-0.8,0.2c-0.2,0.1-0.3,0.3-0.3,0.5c0,0.1,0,0.3,0.1,0.4c0.1,0.1,0.2,0.2,0.4,0.3
		s0.5,0.2,0.8,0.3c0.3,0.1,0.6,0.3,0.9,0.4c0.2,0.1,0.4,0.3,0.6,0.5C140.6,145.9,140.7,146.2,140.7,146.4z"/>
	<path d="M146.9,146.4c0,0.5-0.2,0.9-0.6,1.2s-0.9,0.4-1.6,0.4c-0.4,0-0.7,0-1-0.1c-0.3-0.1-0.5-0.1-0.7-0.3v-0.8
		c0.2,0.1,0.5,0.2,0.8,0.3s0.6,0.1,0.9,0.1c0.4,0,0.8-0.1,1-0.2c0.2-0.1,0.3-0.3,0.3-0.6c0-0.1,0-0.3-0.1-0.4s-0.2-0.2-0.4-0.3
		c-0.2-0.1-0.5-0.2-0.8-0.4c-0.3-0.1-0.6-0.3-0.9-0.4c-0.2-0.1-0.4-0.3-0.6-0.5c-0.1-0.2-0.2-0.4-0.2-0.7c0-0.5,0.2-0.8,0.6-1
		c0.4-0.2,0.9-0.4,1.5-0.4c0.3,0,0.6,0,0.9,0.1c0.3,0.1,0.5,0.2,0.8,0.3l-0.3,0.7c-0.2-0.1-0.5-0.2-0.7-0.2
		c-0.2-0.1-0.5-0.1-0.8-0.1c-0.4,0-0.6,0.1-0.8,0.2c-0.2,0.1-0.3,0.3-0.3,0.5c0,0.1,0,0.3,0.1,0.4c0.1,0.1,0.2,0.2,0.4,0.3
		s0.5,0.2,0.8,0.3c0.3,0.1,0.6,0.3,0.9,0.4c0.2,0.1,0.4,0.3,0.6,0.5C146.9,145.9,146.9,146.2,146.9,146.4z"/>
	<path d="M149.6,147.4c0-0.2,0.1-0.4,0.2-0.5c0.1-0.1,0.3-0.2,0.4-0.2c0.2,0,0.3,0,0.4,0.2c0.1,0.1,0.2,0.3,0.2,0.5
		c0,0.2-0.1,0.4-0.2,0.5c-0.1,0.1-0.3,0.2-0.4,0.2c-0.2,0-0.3-0.1-0.4-0.2C149.7,147.8,149.6,147.6,149.6,147.4z"/>
</g>
<line class="st1" x1="49.6" y1="135.1" x2="49.6" y2="154.4"/>
<g>
	<g>
		<path class="st2" d="M103.2,94.3c3.2,0,3.2-5,0-5C99.9,89.3,99.9,94.3,103.2,94.3L103.2,94.3z"/>
	</g>
</g>
</svg>
