<?xml version="1.0" encoding="utf-8"?>
<!-- Generator: Adobe Illustrator 22.1.0, SVG Export Plug-In . SVG Version: 6.00 Build 0)  -->
<svg version="1.1" id="Layer_1" xmlns="http://www.w3.org/2000/svg" xmlns:xlink="http://www.w3.org/1999/xlink" x="0px" y="0px"
	 viewBox="0 0 170 170" style="enable-background:new 0 0 170 170;" xml:space="preserve">
<style type="text/css">
	.st0{fill:#E7C740;stroke:#E7C740;stroke-miterlimit:10;}
	.st1{font-family:'NotoIKEALatin-Bold';}
	.st2{font-size:11px;}
	.st3{letter-spacing:1;}
	.st4{font-family:'NotoIKEALatin-Regular';}
	.st5{font-size:11.8495px;}
	.st6{font-size:10px;}
	.st7{fill:none;stroke:#000000;stroke-width:1.5;stroke-miterlimit:10;}
	.st8{fill:#FFFFFF;}
</style>
<path class="st0" d="M89.3,52.7c0,0,0,3.8,0,3.8c5.3,0.1,10.6,0.1,15.9,0.2c3.3,0,6.6,0.1,9.8,0.1c3.8,0,8,0.4,10.9,3.3
	c1,1,1.8,2.3,2.4,3.6c1.1,2.3,1.8,4.7,1.9,7.2c0.1,3.4-1.1,6.9-3.3,9.5c-4.8,5.7-12.9,6-19.7,4.9c-0.1,0-0.1,0-0.2,0
	c0,0,0-24.7,0-24.7h-3.9c0,0-0.2,28.2-0.2,28.2c5.2-0.1,10.7,0.2,15.8-0.4c3.7-0.5,7.4-1.9,10.2-4.4c6.7-5.9,7-18.3,1.4-25.1
	c-5.2-6.2-13.4-5.4-20.7-5.6c-6.4-0.1-12.9-0.3-19.3-0.4C90.4,52.7,89.3,52.7,89.3,52.7z"/>
<g>
	<defs>
		<rect id="SVGID_1_" x="30.6" y="32.9" width="47.5" height="40.3"/>
	</defs>
	<clipPath id="SVGID_2_">
		<use xlink:href="#SVGID_1_"  style="overflow:visible;"/>
	</clipPath>
</g>
<path d="M15,35.4c0,0,0-23.1,0-23.1h137.6v92.3H82.3L53,129h-4.2l0.2-23.4L15,105V42.2h5.9v56.4l33.5,0.7l-0.2,20.8l25.5-21.2
	l66.8,0.2V17.9L20.9,17.4c0,0,0.2,11.8,0.2,11.8c6.5,0.1,13,0.1,19.5,0.2c5.9,0,11.8,0.1,17.7,0.2c6.4,0.1,12.3-0.1,18.3,2.3
	c4.4,1.8,8.5,4.4,11.6,7.9c8.5,9.4,8.3,23.7,3,34.7c-2.2,4.5-7.3,8.1-11.6,10.3c-5,2.5-10.6,3-16.1,3.1c-6.7,0.2-13.4,0.2-20,0.4
	c0-6.1-0.1-12.3-0.1-18.4c0-8.6-0.1-17.2-0.1-25.7c0-1.1-0.4-2.3,0.6-2.6c0.4-0.1,5.5,0.3,5.5,0.5c0,0,0.9,40.6,0.9,40.6
	c5.9,0,12.2,0.4,18-0.3c6.6-0.8,13.5-5,17-10.7c2.7-4.4,3.4-9.7,2.7-14.8c-0.2-1.7-0.6-3.3-1-4.9c-0.8-2.9-2-5.8-3.9-8.2
	c-2.6-3.2-6.2-5.4-10.1-6.7c-3.9-1.3-7.7-1.2-11.7-1.2c-9.1-0.1-18.2-0.2-27.3-0.2c-6.3-0.1-12.6-0.1-18.9-0.2
	C15.2,35.4,15,35.4,15,35.4z"/>
<text transform="matrix(1 0 0 1 15.9802 147.9194)"><tspan x="0" y="0" class="st1 st2 st3">D</tspan><tspan x="9.8" y="0" class="st4 st2 st3">&amp;</tspan><tspan x="19.5" y="0" class="st1 st2 st3">D</tspan><tspan x="29.3" y="0" class="st4 st5 st3">  </tspan><tspan x="39" y="0" class="st4 st6 st3">Dare to discuss.</tspan></text>
<line class="st7" x1="49.6" y1="135.1" x2="49.6" y2="154.4"/>
<g>
	<g>
		<path class="st8" d="M103.2,94.3c3.2,0,3.2-5,0-5C99.9,89.3,99.9,94.3,103.2,94.3L103.2,94.3z"/>
	</g>
</g>
</svg>
